<?xml version="1.0" encoding="UTF-8"?>
<svg version="1.1" xmlns="http://www.w3.org/2000/svg" width="500" height="500">
<path d="M0 0 C165 0 330 0 500 0 C500 165 500 330 500 500 C335 500 170 500 0 500 C0 335 0 170 0 0 Z " fill="#000000" transform="translate(0,0)"/>
<path d="M0 0 C26.78625954 0 26.78625954 0 31.64453125 4.53515625 C35.44654715 9.50702319 36.78558838 12.69316369 36 19 C34.12960597 24.92113309 31.39765146 28.05582648 26 31 C27.68066591 34.65323695 29.86766461 37.86622337 32.125 41.1875 C36 46.88967972 36 46.88967972 36 48 C24.12 48 12.24 48 0 48 C0 32.16 0 16.32 0 0 Z " fill="#E3E3E3" transform="translate(157,200)"/>
<path d="M0 0 C4 1 4 1 5.70751953 3.37670898 C6.26036621 4.40610596 6.81321289 5.43550293 7.3828125 6.49609375 C7.99253906 7.61177734 8.60226562 8.72746094 9.23046875 9.87695312 C9.86260158 11.0634707 10.49410521 12.25032368 11.125 13.4375 C12.3723807 15.7515779 13.62733239 18.06138353 14.8828125 20.37109375 C15.43340332 21.40161865 15.98399414 22.43214355 16.55126953 23.49389648 C17.89478042 26.06697369 17.89478042 26.06697369 20 28 C20.43344727 27.18732666 20.86689453 26.37465332 21.31347656 25.53735352 C22.92807932 22.5253988 24.55434356 19.52039111 26.18896484 16.51928711 C26.893949 15.21913801 27.59418616 13.91640324 28.28955078 12.61108398 C29.29002539 10.73501569 30.30721266 8.86891374 31.328125 7.00390625 C31.9355957 5.87799072 32.54306641 4.7520752 33.16894531 3.59204102 C35 1 35 1 39 0 C39 15.84 39 31.68 39 48 C26.13 48 13.26 48 0 48 C0 32.16 0 16.32 0 0 Z " fill="#020202" transform="translate(256,200)"/>
<path d="M0 0 C11.55 0 23.1 0 35 0 C35 3.96 35 7.92 35 12 C27.74 12 20.48 12 13 12 C13 13.98 13 15.96 13 18 C19.27 18 25.54 18 32 18 C32 21.96 32 25.92 32 30 C25.73 30 19.46 30 13 30 C13 31.98 13 33.96 13 36 C20.26 36 27.52 36 35 36 C35 39.96 35 43.92 35 48 C23.45 48 11.9 48 0 48 C0 32.16 0 16.32 0 0 Z " fill="#F8F8F8" transform="translate(207,200)"/>
<path d="M0 0 C11.55 0 23.1 0 35 0 C35 3.96 35 7.92 35 12 C27.41 12 19.82 12 12 12 C12 13.98 12 15.96 12 18 C18.27 18 24.54 18 31 18 C31 21.96 31 25.92 31 30 C24.73 30 18.46 30 12 30 C12 31.98 12 33.96 12 36 C19.59 36 27.18 36 35 36 C35 39.96 35 43.92 35 48 C23.45 48 11.9 48 0 48 C0 32.16 0 16.32 0 0 Z " fill="#FAFAFA" transform="translate(411,200)"/>
<path d="M0 0 C0.66 0 1.32 0 2 0 C9.73965264 15.84203887 17.06650479 31.78785679 24 48 C9.15 48 -5.7 48 -21 48 C-18.99862578 41.99587735 -16.99429019 36.5012602 -14.27734375 30.859375 C-13.93119522 30.12930237 -13.58504669 29.39922974 -13.22840881 28.64703369 C-12.13627907 26.34568273 -11.03725836 24.04771376 -9.9375 21.75 C-8.83547378 19.43740918 -7.73493396 17.12412423 -6.63587952 14.81011963 C-5.95562848 13.378946 -5.27346958 11.9486771 -4.58909607 10.51947021 C-2.93707024 7.05429627 -1.37365365 3.58524899 0 0 Z " fill="#040404" transform="translate(325,200)"/>
<path d="M0 0 C10.23 0 20.46 0 31 0 C31 3.96 31 7.92 31 12 C26.05 12 21.1 12 16 12 C16 19.92 16 27.84 16 36 C20.62 36 25.24 36 30 36 C30 39.96 30 43.92 30 48 C19.77 48 9.54 48 -1 48 C-1 44.04 -1 40.08 -1 36 C3.95 36 8.9 36 14 36 C14 28.08 14 20.16 14 12 C9.38 12 4.76 12 0 12 C0 8.04 0 4.08 0 0 Z " fill="#FAFAFA" transform="translate(108,200)"/>
<path d="M0 0 C2.44502504 1.37564037 4.19223078 3.00051163 6.15234375 5.0078125 C6.85875 5.71808594 7.56515625 6.42835938 8.29296875 7.16015625 C9.90234375 9.0703125 9.90234375 9.0703125 9.90234375 11.0703125 C15.17198902 8.43548987 18.88137929 4.27087339 22.90234375 0.0703125 C26.35436014 1.54752672 28.55196311 3.50825251 31.15234375 6.1953125 C31.85875 6.91976563 32.56515625 7.64421875 33.29296875 8.390625 C33.8240625 8.94492187 34.35515625 9.49921875 34.90234375 10.0703125 C39.28063692 8.22322007 41.78113421 5.13322392 44.90234375 1.65234375 C46.90234375 0.0703125 46.90234375 0.0703125 48.8203125 0.03125 C51.80355136 1.52007089 53.84789928 3.54327115 56.21484375 5.8828125 C57.11847656 6.75550781 58.02210938 7.62820313 58.953125 8.52734375 C60.90234375 11.0703125 60.90234375 11.0703125 60.6953125 13.39453125 C60.43363281 13.94753906 60.17195313 14.50054687 59.90234375 15.0703125 C58.91234375 14.5753125 58.91234375 14.5753125 57.90234375 14.0703125 C57.77988281 13.47734375 57.65742188 12.884375 57.53125 12.2734375 C56.67843107 9.28592276 55.07306138 7.94718643 52.83984375 5.8203125 C52.10636719 5.11390625 51.37289062 4.4075 50.6171875 3.6796875 C50.05128906 3.14859375 49.48539062 2.6175 48.90234375 2.0703125 C47.81394601 2.95998594 46.73189767 3.85742824 45.65234375 4.7578125 C45.0490625 5.25667969 44.44578125 5.75554687 43.82421875 6.26953125 C41.39780414 8.45723183 41.39780414 8.45723183 37.90234375 13.0703125 C41.53234375 16.7003125 45.16234375 20.3303125 48.90234375 24.0703125 C45.90234375 24.0703125 45.90234375 24.0703125 43.640625 22.1015625 C42.84011719 21.26625 42.03960937 20.4309375 41.21484375 19.5703125 C40.00248047 18.31734375 40.00248047 18.31734375 38.765625 17.0390625 C38.15074219 16.389375 37.53585937 15.7396875 36.90234375 15.0703125 C33.45032736 16.54752672 31.25272439 18.50825251 28.65234375 21.1953125 C27.59273437 22.28199219 27.59273437 22.28199219 26.51171875 23.390625 C25.980625 23.94492187 25.44953125 24.49921875 24.90234375 25.0703125 C21.22164488 23.53387398 18.91459171 21.28880305 16.15234375 18.4453125 C15.353125 17.62804687 14.55390625 16.81078125 13.73046875 15.96875 C13.1271875 15.34226562 12.52390625 14.71578125 11.90234375 14.0703125 C11.34804687 14.6478125 10.79375 15.2253125 10.22265625 15.8203125 C9.13597656 16.9340625 9.13597656 16.9340625 8.02734375 18.0703125 C7.30804688 18.8128125 6.58875 19.5553125 5.84765625 20.3203125 C3.90234375 22.0703125 3.90234375 22.0703125 1.90234375 22.0703125 C1.90234375 22.7303125 1.90234375 23.3903125 1.90234375 24.0703125 C0.2265625 24.86328125 0.2265625 24.86328125 -2.09765625 25.0703125 C-4.640625 23.12109375 -4.640625 23.12109375 -7.28515625 20.3828125 C-8.16558594 19.49207031 -9.04601562 18.60132813 -9.953125 17.68359375 C-13.25688046 13.65770595 -13.25688046 13.65770595 -13.09765625 11.0703125 C-11.42833281 8.88966476 -9.86755026 7.14171236 -7.91015625 5.2578125 C-7.41451172 4.74283203 -6.91886719 4.22785156 -6.40820312 3.69726562 C-2.75502613 0.09234724 -2.75502613 0.09234724 0 0 Z " fill="#515151" transform="translate(226.09765625,274.9296875)"/>
<path d="M0 0 C4 1 4 1 5.70751953 3.37670898 C6.26036621 4.40610596 6.81321289 5.43550293 7.3828125 6.49609375 C7.99253906 7.61177734 8.60226562 8.72746094 9.23046875 9.87695312 C9.86260158 11.0634707 10.49410521 12.25032368 11.125 13.4375 C12.3723807 15.7515779 13.62733239 18.06138353 14.8828125 20.37109375 C15.43340332 21.40161865 15.98399414 22.43214355 16.55126953 23.49389648 C17.89478042 26.06697369 17.89478042 26.06697369 20 28 C20.43344727 27.18732666 20.86689453 26.37465332 21.31347656 25.53735352 C22.92807932 22.5253988 24.55434356 19.52039111 26.18896484 16.51928711 C26.893949 15.21913801 27.59418616 13.91640324 28.28955078 12.61108398 C29.29002539 10.73501569 30.30721266 8.86891374 31.328125 7.00390625 C31.9355957 5.87799072 32.54306641 4.7520752 33.16894531 3.59204102 C35 1 35 1 39 0 C39 15.84 39 31.68 39 48 C26.13 48 13.26 48 0 48 C0 32.16 0 16.32 0 0 Z M3 7 C3 19.54 3 32.08 3 45 C13.89 45 24.78 45 36 45 C36 32.46 36 19.92 36 7 C33.34081834 9.65918166 31.89574386 11.66884154 30.08203125 14.88671875 C29.55029297 15.82451172 29.01855469 16.76230469 28.47070312 17.72851562 C27.64989258 19.19321289 27.64989258 19.19321289 26.8125 20.6875 C26.25369141 21.67556641 25.69488281 22.66363281 25.11914062 23.68164062 C23.74169623 26.11865763 22.36884596 28.55814623 21 31 C20.01 31 19.02 31 18 31 C16.39013672 28.796875 16.39013672 28.796875 14.6796875 25.75 C14.06222656 24.6671875 13.44476563 23.584375 12.80859375 22.46875 C11.85146484 20.75171875 11.85146484 20.75171875 10.875 19 C9.6046045 16.74828103 8.33133325 14.4981812 7.0546875 12.25 C6.49249512 11.24453125 5.93030273 10.2390625 5.35107422 9.203125 C4.90521973 8.47609375 4.45936523 7.7490625 4 7 C3.67 7 3.34 7 3 7 Z " fill="#E2E2E2" transform="translate(256,200)"/>
<path d="M0 0 C12.54 0 25.08 0 38 0 C38 3.96 38 7.92 38 12 C32.06 12 26.12 12 20 12 C20 23.88 20 35.76 20 48 C19.34 48 18.68 48 18 48 C18 36.12 18 24.24 18 12 C12.06 12 6.12 12 0 12 C0 8.04 0 4.08 0 0 Z " fill="#FCFCFC" transform="translate(358,200)"/>
<path d="M0 0 C3.22899426 -0.0875127 6.45768116 -0.14056146 9.6875 -0.1875 C11.05551758 -0.22520508 11.05551758 -0.22520508 12.45117188 -0.26367188 C17.45816446 -0.31829361 20.96132684 -0.32549476 25 3 C28.15122435 6.69453889 28.51593499 10.08445037 28.359375 14.78125 C27.80079406 18.22988016 26.23593827 20.38075803 24 23 C21 25 21 25 18.51416016 24.8684082 C15.45288858 23.81102395 14.59777062 22.74836761 12.7734375 20.10546875 C11.938125 18.91920898 11.938125 18.91920898 11.0859375 17.70898438 C10.23902344 16.46084961 10.23902344 16.46084961 9.375 15.1875 C8.51648438 13.95676758 8.51648438 13.95676758 7.640625 12.70117188 C6.57192296 11.1689514 5.5092163 9.63251867 4.45458984 8.09057617 C3.45110579 6.64834153 2.40085886 5.23792234 1.31494141 3.85668945 C0 2 0 2 0 0 Z " fill="#040404" transform="translate(162,203)"/>
<path d="M0 0 C0.66 0 1.32 0 2 0 C9.73965264 15.84203887 17.06650479 31.78785679 24 48 C9.15 48 -5.7 48 -21 48 C-18.99862578 41.99587735 -16.99429019 36.5012602 -14.27734375 30.859375 C-13.93119522 30.12930237 -13.58504669 29.39922974 -13.22840881 28.64703369 C-12.13627907 26.34568273 -11.03725836 24.04771376 -9.9375 21.75 C-8.83547378 19.43740918 -7.73493396 17.12412423 -6.63587952 14.81011963 C-5.95562848 13.378946 -5.27346958 11.9486771 -4.58909607 10.51947021 C-2.93707024 7.05429627 -1.37365365 3.58524899 0 0 Z M1 6 C-3.72505498 15.21253736 -8.21397624 24.51193861 -12.5 33.9375 C-12.94520996 34.91477051 -13.39041992 35.89204102 -13.84912109 36.89892578 C-15.96612615 40.80496834 -15.96612615 40.80496834 -17 45 C-5.12 45 6.76 45 19 45 C17.08461961 39.25385884 15.22200578 33.964099 12.64453125 28.55859375 C12.33803146 27.90544693 12.03153168 27.25230011 11.71574402 26.57936096 C10.75267462 24.52983135 9.78274303 22.48364173 8.8125 20.4375 C8.15123199 19.03342001 7.49042094 17.62912472 6.83007812 16.22460938 C5.22530953 12.81390118 3.61438573 9.40616599 2 6 C1.67 6 1.34 6 1 6 Z " fill="#E1E1E1" transform="translate(325,200)"/>
<path d="M0 0 C0.99 0 1.98 0 3 0 C3 4.62 3 9.24 3 14 C4.670625 13.87625 4.670625 13.87625 6.375 13.75 C15.76351084 13.83264534 22.18389632 18.51162181 28.87109375 24.68359375 C31 27 31 27 34 32 C34.33 21.44 34.66 10.88 35 0 C35.66 0 36.32 0 37 0 C37 15.84 37 31.68 37 48 C36.34 48 35.68 48 35 48 C34.85304687 47.23816406 34.70609375 46.47632813 34.5546875 45.69140625 C32.46975558 36.09352998 28.83562335 28.5167303 21.05859375 22.28125 C15.53899021 18.84589903 9.31366827 17.26273365 3 16 C3 26.56 3 37.12 3 48 C2.01 48 1.02 48 0 48 C0 32.16 0 16.32 0 0 Z " fill="#F2F2F2" transform="translate(53,200)"/>
<path d="M0 0 C16.25796632 -1.78622621 16.25796632 -1.78622621 20.78320312 1.16162109 C23.94234317 4.30515274 26.0816948 7.98480863 28 12 C28 12.33 28 12.66 28 13 C18.76 13 9.52 13 0 13 C0 8.71 0 4.42 0 0 Z " fill="#010101" transform="translate(160,232)"/>
<path d="M0 0 C1.73488738 1.46198375 3.46012621 2.93279272 5.171875 4.421875 C6.58883434 5.64506212 8.03830192 6.83064153 9.5 8 C11 10 11 10 11 13.125 C10 16 10 16 8 17.1875 C7.34 17.455625 6.68 17.72375 6 18 C5.67 18.99 5.34 19.98 5 21 C4.34 21 3.68 21 3 21 C3 21.66 3 22.32 3 23 C-1.31730413 22.52590352 -3.33647461 19.96603297 -6.25 16.9375 C-7.14203125 16.01839844 -8.0340625 15.09929687 -8.953125 14.15234375 C-9.62859375 13.44207031 -10.3040625 12.73179687 -11 12 C-7.49102731 7.81576108 -3.91939465 3.80411834 0 0 Z " fill="#0B0B0B" transform="translate(274,276)"/>
<path d="M0 0 C0.33 0 0.66 0 1 0 C1 15.18 1 30.36 1 46 C12.55 46 24.1 46 36 46 C35.67 33.46 35.34 20.92 35 8 C34.34 7.67 33.68 7.34 33 7 C33.75 4.0625 33.75 4.0625 35 1 C36.32 0.67 37.64 0.34 39 0 C39 15.84 39 31.68 39 48 C26.13 48 13.26 48 0 48 C0 32.16 0 16.32 0 0 Z " fill="#E6E6E6" transform="translate(256,200)"/>
<path d="M0 0 C3.45201639 1.47721422 5.64961936 3.43794001 8.25 6.125 C8.95640625 6.84945313 9.6628125 7.57390625 10.390625 8.3203125 C11.18726563 9.15175781 11.18726563 9.15175781 12 10 C8.79239749 13.80635497 5.59253891 17.54563567 2 21 C-1.39859703 19.53033642 -3.64963709 17.61962486 -6.25 15 C-6.95640625 14.29875 -7.6628125 13.5975 -8.390625 12.875 C-10 11 -10 11 -10 9 C-8.3203125 7.34375 -8.3203125 7.34375 -6.125 5.5 C-4.00964496 3.71066742 -1.95980876 1.95980876 0 0 Z " fill="#000000" transform="translate(249,277)"/>
<path d="M0 0 C5.63431613 5.63431613 5.63431613 5.63431613 8.11328125 9.13671875 C8.9012207 10.24950195 8.9012207 10.24950195 9.70507812 11.38476562 C10.23552734 12.14466797 10.76597656 12.90457031 11.3125 13.6875 C12.13717773 14.84475586 12.13717773 14.84475586 12.97851562 16.02539062 C17 21.74539014 17 21.74539014 17 24 C11.39 24 5.78 24 0 24 C0 16.08 0 8.16 0 0 Z " fill="#0C0C0C" transform="translate(159,205)"/>
<path d="M0 0 C0.99 0 1.98 0 3 0 C3 4.62 3 9.24 3 14 C4.98 14 6.96 14 9 14 C9 14.66 9 15.32 9 16 C7.02 16 5.04 16 3 16 C3 26.56 3 37.12 3 48 C2.01 48 1.02 48 0 48 C0 32.16 0 16.32 0 0 Z " fill="#DADADA" transform="translate(53,200)"/>
<path d="M0 0 C3 1 3 1 4.1875 2.875 C5 5 5 5 5 8 C4.34 8 3.68 8 3 8 C2.67 20.21 2.34 32.42 2 45 C12.89 45 23.78 45 35 45 C35 45.33 35 45.66 35 46 C23.45 46 11.9 46 0 46 C0 30.82 0 15.64 0 0 Z " fill="#C8C8C8" transform="translate(257,200)"/>
<path d="M0 0 C3.07980691 3.78746481 5.330995 7.9955125 7.6875 12.25 C8.10322266 12.99507812 8.51894531 13.74015625 8.94726562 14.5078125 C9.96744233 16.33709487 10.98407487 18.16835302 12 20 C11.01 20.66 10.02 21.32 9 22 C7.29241747 19.09465435 5.61261646 16.17416582 3.9375 13.25 C3.20950195 12.0125 3.20950195 12.0125 2.46679688 10.75 C2.01240234 9.95078125 1.55800781 9.1515625 1.08984375 8.328125 C0.66566162 7.5949707 0.24147949 6.86181641 -0.19555664 6.10644531 C-1.14514362 3.61993956 -0.89753304 2.46152694 0 0 Z " fill="#E0E0E0" transform="translate(262,206)"/>
<path d="M0 0 C2.8842454 0.34485543 3.8207818 0.78255407 5.703125 3.06640625 C6.21359375 3.89011719 6.7240625 4.71382812 7.25 5.5625 C8.03117188 6.80193359 8.03117188 6.80193359 8.828125 8.06640625 C9.21484375 8.70449219 9.6015625 9.34257812 10 10 C9.01 10.66 8.02 11.32 7 12 C5.82767315 10.3790787 4.6622923 8.75313167 3.5 7.125 C2.8503125 6.22007812 2.200625 5.31515625 1.53125 4.3828125 C0 2 0 2 0 0 Z " fill="#E0E0E0" transform="translate(181,234)"/>
<path d="M0 0 C2.64 0.66 5.28 1.32 8 2 C7.67 2.99 7.34 3.98 7 5 C4.36 4.34 1.72 3.68 -1 3 C-0.67 2.01 -0.34 1.02 0 0 Z " fill="#D8D8D8" transform="translate(62,214)"/>
<path d="M0 0 C0.66 0 1.32 0 2 0 C2 1.98 2 3.96 2 6 C1.34 6 0.68 6 0 6 C-0.66 6.66 -1.32 7.32 -2 8 C-3 5 -3 5 -1.6875 2.3125 C-1.130625 1.549375 -0.57375 0.78625 0 0 Z " fill="#F3F3F3" transform="translate(292,200)"/>
<path d="M0 0 C3 1 3 1 4.1875 2.875 C5 5 5 5 5 8 C3 8 3 8 1.375 6.8125 C-0.42149467 4.44439338 -0.23521845 2.90102749 0 0 Z " fill="#F4F4F4" transform="translate(257,200)"/>
<path d="M0 0 C0.598125 0.185625 1.19625 0.37125 1.8125 0.5625 C4.16408762 1.22093687 4.16408762 1.22093687 7 0 C6.34 1.65 5.68 3.3 5 5 C3.68 4.67 2.36 4.34 1 4 C0.67 2.68 0.34 1.36 0 0 Z " fill="#F3F3F3" transform="translate(272,227)"/>
<path d="M0 0 C1 3 1 3 -0.4375 6.1875 C-1.2109375 7.5796875 -1.2109375 7.5796875 -2 9 C-2.66 8.67 -3.32 8.34 -4 8 C-3.50168276 4.31245243 -2.89932357 2.39509338 0 0 Z " fill="#E8E8E8" transform="translate(324,206)"/>
<path d="M0 0 C1.89213369 2.38573379 3.02391783 4.07175348 4 7 C3.01 7.33 2.02 7.66 1 8 C0.26919734 6.02253397 -0.39421747 4.01927511 -1 2 C-0.67 1.34 -0.34 0.68 0 0 Z " fill="#DADADA" transform="translate(270,220)"/>
</svg>
